#!OML:ASF \\Waltz\H\Terrain\Patient Classification 1\Animal2\Wednesday\Animal2.ASF
:FULLY-SPECIFIED
:DEGREES
2953
root 0.0196644 17.8545 -19.3291 7.81382 45.7369 0.628544
lowerback 7.29994 0.460564 2.13754
upperback -6.31032 0.968141 0.40604
thorax -10.8423 0.339206 -0.927226
lowerneck 16.4147 18.0223 17.4169
upperneck -15.6351 25.3558 -24.1498
head -1.69303 13.7504 -10.6154
rclavicle -8.63222e-014 -1.86858e-014
rhumerus -48.9974 -36.6028 -22.6876
rradius 62.1066
rwrist 26.5428
rhand 22.61 22.2426
rfingers 7.12502
rthumb 46.9583 -0.441969
lclavicle -8.63222e-014 -1.86858e-014
lhumerus -60.0318 24.2759 24.8829
lradius 56.2342
lwrist 2.68135
lhand 35.2703 41.0563
lfingers 7.12502
lthumb 58.3724 -303.561
rfemur -7.35387 3.21456 15.7689
rtibia 31.2518
rfoot -11.2613 12.9955
rtoes 19.4977
lfemur -14.6853 -6.60047 -7.71956
ltibia 22.7235
lfoot -13.9466 3.22853
ltoes -31.3129
2954
root -0.0490917 17.8792 -19.3765 7.77083 45.7876 0.702197
lowerback 7.16308 0.377758 1.99594
upperback -6.26986 0.853383 0.599696
thorax -10.7222 0.305532 -0.619203
lowerneck 16.5279 18.1118 17.245
upperneck -15.5769 25.474 -23.9887
head -1.71893 13.807 -10.5491
rclavicle 4.70126e-014 -1.59028e-015
rhumerus -49.4479 -31.8707 -24.6889
rradius 65.0493
rwrist 23.7981
rhand 25.89 21.9702
rfingers 7.12502
rthumb 49.977 0.735437
lclavicle 4.70126e-014 -1.59028e-015
lhumerus -59.7761 24.2971 24.7716
lradius 56.7914
lwrist 3.42849
lhand 35.7645 42.3349
lfingers 7.12502
lthumb 58.8012 -302.685
rfemur -7.54135 3.03951 15.7405
rtibia 31.1607
rfoot -10.936 13.0314
rtoes 20.6902
lfemur -14.0682 -7.12422 -7.74973
ltibia 22.0639
lfoot -13.5077 3.33268
ltoes -30.9833
2955
root -0.114148 17.9214 -19.4198 7.73778 46.0664 0.813112
lowerback 7.03981 0.247046 1.92974
upperback -6.26991 0.676805 0.709162
thorax -10.6541 0.231461 -0.435007
lowerneck 16.8482 18.1209 17.3691
upperneck -15.6122 25.5558 -23.9728
head -1.74959 13.853 -10.5916
rclavicle -3.8763e-015 -3.97569e-015
rhumerus -47.3986 -36.9043 -22.3322
rradius 62.7038
rwrist 29.2935
rhand 32.8201 27.4465
rfingers 7.12502
rthumb 56.2229 10.2309
lclavicle -3.8763e-015 -3.97569e-015
lhumerus -59.3105 24.316 24.528
lradius 57.1883
lwrist 3.99632
lhand 36.8534 43.5048
lfingers 7.12502
lthumb 59.7396 -302.444
rfemur -7.51292 2.99318 15.7835
rtibia 30.8883
rfoot -10.6735 12.6052
rtoes 21.1897
lfemur -13.45 -7.75417 -7.8423
ltibia 21.3092
lfoot -12.9886 3.16917
ltoes -30.9281
2956
root -0.174023 17.9722 -19.4669 7.90972 46.336 1.22816
lowerback 7.02089 0.15968 1.76283
upperback -6.33658 0.538333 0.684754
thorax -10.7209 0.175787 -0.345166
lowerneck 17.1699 18.0758 17.5477
upperneck -15.6005 25.5874 -23.8489
head -1.78703 13.8607 -10.6125
rclavicle 5.66536e-015 3.06128e-014
rhumerus -47.5358 -35.6105 -22.5054
rradius 63.7894
rwrist 28.9736
rhand 35.8878 28.9843
rfingers 7.12502
rthumb 58.9079 14.1065
lclavicle 5.66536e-015 3.06128e-014
lhumerus -58.6655 24.2482 24.3802
lradius 57.5508
lwrist 4.18434
lhand 37.7721 44.3003
lfingers 7.12502
lthumb 60.5241 -302.482
rfemur -7.39727 3.02794 15.5855
rtibia 30.48
rfoot -10.3934 12.0079
rtoes 21.6867
lfemur -12.7145 -8.52777 -8.17816
ltibia 20.4304
lfoot -12.4727 2.49785
ltoes -26.9531
2957
root -0.219435 18.0239 -19.5107 8.14541 46.4735 1.72297
lowerback 6.85478 0.0946913 1.46725
upperback -6.35994 0.420214 0.761065
thorax -10.6504 0.145749 -0.0778918
lowerneck 17.2479 18.0807 17.3095
upperneck -15.4817 25.5782 -23.6549
head -1.82944 13.8523 -10.5385
rclavicle 7.30782e-014 6.75868e-015
rhumerus -47.3309 -34.9046 -22.4155
rradius 64.8288
rwrist 28.5236
rhand 38.5987 30.1471
rfingers 7.12502
rthumb 61.2237 17.719
lclavicle 7.30782e-014 6.75868e-015
lhumerus -58.2285 24.2817 24.2946
lradius 58.0923
lwrist 4.36646
lhand 37.5922 44.8847
lfingers 7.12502
lthumb 60.371 -301.73
rfemur -7.22957 3.0297 15.2546
rtibia 29.9647
rfoot -9.93708 11.6011
rtoes 16.9745
lfemur -11.863 -8.85864 -8.68411
ltibia 19.5203
lfoot -11.8736 1.70127
ltoes -22.503
2958
root -0.252013 18.082 -19.5478 8.56099 46.8 2.6462
lowerback 6.59614 -0.0672484 0.871014
upperback -6.29435 0.129007 0.796018
thorax -10.4239 0.052327 0.339768
lowerneck 17.1662 18.1067 17.0706
upperneck -15.193 25.5912 -23.5225
head -1.78303 13.8556 -10.4434
rclavicle 4.90004e-014 -9.54166e-015
rhumerus -46.56 -35.4035 -21.8986
rradius 64.875
rwrist 28.6936
rhand 40.6688 31.8098
rfingers 7.12502
rthumb 62.9472 21.5474
lclavicle 4.90004e-014 -9.54166e-015
lhumerus -57.8446 24.3745 24.2423
lradius 58.7166
lwrist 4.87502
lhand 35.2095 45.1976
lfingers 7.12502
lthumb 58.3195 -299.371
rfemur -6.7565 2.53028 14.5548
rtibia 29.2821
rfoot -8.99485 11.7523
rtoes 16.8778
lfemur -11.0546 -8.906 -9.67895
ltibia 18.8208
lfoot -11.102 1.06896
ltoes -22.8962
2959
root -0.281206 18.1497 -19.5926 8.98828 47.0671 3.18389
lowerback 6.08957 -0.189142 0.604131
upperback -6.34127 -0.0676209 0.812725
thorax -10.1708 -0.0211751 0.535451
lowerneck 17.1024 18.051 17.2527
upperneck -14.73 25.6039 -23.4375
head -1.6259 13.845 -10.39
rclavicle 4.56211e-014 1.27222e-014
rhumerus -46.2552 -34.439 -21.8112
rradius 65.4171
rwrist 27.4558
rhand 41.7089 32.2531
rfingers 7.12502
rthumb 63.7957 23.1907
lclavicle 4.56211e-014 1.27222e-014
lhumerus -57.3661 24.5895 23.8178
lradius 59.0817
lwrist 3.66014
lhand 34.8635 44.3608
lfingers 7.12502
lthumb 58.0182 -299.934
rfemur -6.53299 2.16998 14.1017
rtibia 28.3738
rfoot -7.53997 11.773
rtoes 20.2075
lfemur -10.7758 -8.92664 -10.4173
ltibia 18.4993
lfoot -10.476 1.05507
ltoes -26.2351
2960
root -0.303758 18.2337 -19.6401 8.73767 47.1355 2.14008
lowerback 5.11147 -0.190398 1.49588
upperback -6.52517 0.0365301 1.03034
thorax -9.79184 -0.0221277 0.248996
lowerneck 17.17 17.9182 17.7522
upperneck -14.4002 25.5782 -23.4959
head -1.47146 13.8193 -10.4401
rclavicle 2.45002e-014 -2.38542e-015
rhumerus -46.1092 -35.035 -21.0899
rradius 65.8315
rwrist 27.1589
rhand 43.1876 32.7643
rfingers 7.12502
rthumb 64.979 25.5524
lclavicle 2.45002e-014 -2.38542e-015
lhumerus -56.5461 24.3964 23.8566
lradius 59.4228
lwrist 3.71923
lhand 32.3249 43.5055
lfingers 7.12502
lthumb 55.7841 -298.939
rfemur -6.79934 2.54291 14.8685
rtibia 27.3066
rfoot -6.13705 11.0555
rtoes 22.4389
lfemur -11.0946 -8.52004 -9.95961
ltibia 18.5591
lfoot -10.0851 1.28729
ltoes -29.2501
2961
root -0.332056 18.3217 -19.6867 8.18019 47.3399 0.850504
lowerback 4.32287 -0.247425 2.49714
upperback -6.66766 0.070488 1.36333
thorax -9.48409 -0.0581858 0.0352663
lowerneck 17.1607 17.9988 17.5318
upperneck -14.3792 25.6629 -23.0831
head -1.5414 13.8318 -10.2916
rclavicle -9.0944e-015 -1.98785e-014
rhumerus -45.7911 -35.6265 -20.4706
rradius 66.3084
rwrist 26.7854
rhand 43.9393 32.9105
rfingers 7.12502
rthumb 65.569 26.7103
lclavicle -9.0944e-015 -1.98785e-014
lhumerus -55.8244 24.3229 23.9285
lradius 59.8617
lwrist 3.87455
lhand 30.6523 42.9225
lfingers 7.12502
lthumb 54.2924 -298.439
rfemur -6.91287 2.98414 15.883
rtibia 26.2061
rfoot -4.60602 10.2101
rtoes 24.3921
lfemur -11.4923 -7.85874 -9.31247
ltibia 18.9461
lfoot -10.0518 0.960925
ltoes -30.2518
2962
root -0.364149 18.3967 -19.7291 8.19395 47.6044 0.651143
lowerback 3.79302 -0.35478 2.64368
upperback -6.77934 -0.0578815 1.54486
thorax -9.29564 -0.120226 0.1593
lowerneck 16.9361 18.0575 16.9538
upperneck -14.3119 25.6293 -22.4093
head -1.67494 13.7691 -10.0223
rclavicle -3.55328e-014 3.10104e-014
rhumerus -45.4707 -35.7485 -19.9569
rradius 66.7645
rwrist 26.2715
rhand 43.8675 32.8189
rfingers 7.12502
rthumb 65.513 26.5199
lclavicle -3.55328e-014 3.10104e-014
lhumerus -55.2398 24.4093 23.7397
lradius 60.2068
lwrist 3.52461
lhand 30.1332 41.7976
lfingers 7.12502
lthumb 53.8266 -299.248
rfemur -6.79184 2.56947 16.0342
rtibia 25.152
rfoot -2.88456 9.90714
rtoes 25.2046
lfemur -11.7442 -7.27542 -9.50552
ltibia 19.4742
lfoot -10.4536 0.0904365
ltoes -30.1814
2963
root -0.393559 18.4769 -19.769 8.74245 47.7845 1.15257
lowerback 3.24557 -0.431998 2.34414
upperback -6.93015 -0.201103 1.50806
thorax -9.13554 -0.168377 0.301339
lowerneck 16.8761 17.8588 17.0747
upperneck -14.2016 25.3915 -22.3918
head -1.66628 13.6421 -10.0413
rclavicle -3.15571e-014 -6.36111e-015
rhumerus -45.4689 -35.7849 -19.386
rradius 67.2875
rwrist 25.6752
rhand 43.0083 32.1084
rfingers 7.12502
rthumb 64.8371 24.6627
lclavicle -3.15571e-014 -6.36111e-015
lhumerus -54.5368 24.3389 23.3987
lradius 60.4041
lwrist 3.19011
lhand 28.3016 39.7961
lfingers 7.12502
lthumb 52.1737 -300.202
rfemur -6.75413 1.75274 15.6671
rtibia 24.2787
rfoot -1.62691 9.79042
rtoes 21.9366
lfemur -11.9309 -6.62692 -10.2671
ltibia 19.9229
lfoot -10.9269 -1.25464
ltoes -27.7517
2964
root -0.430045 18.5664 -19.8142 9.1574 47.9177 1.65282
lowerback 2.88881 -0.540891 1.96541
upperback -7.00069 -0.381074 1.55199
thorax -8.99847 -0.226626 0.576256
lowerneck 17.2395 17.8776 16.8687
upperneck -14.4827 25.3933 -22.4225
head -1.82667 13.6668 -10.0995
rclavicle -5.73494e-014 -6.36111e-015
rhumerus -45.1159 -35.8021 -19.0401
rradius 67.7389
rwrist 24.7819
rhand 41.7826 30.7519
rfingers 7.12502
rthumb 63.8554 21.7777
lclavicle -5.73494e-014 -6.36111e-015
lhumerus -53.9367 24.3847 23.108
lradius 60.6946
lwrist 3.13257
lhand 25.6589 38.0589
lfingers 7.12502
lthumb 49.7654 -300.596
rfemur -6.75559 1.79135 15.3546
rtibia 23.6642
rfoot -0.319163 9.0547
rtoes 21.8844
lfemur -11.8587 -5.81241 -11.0526
ltibia 20.1798
lfoot -11.0327 -2.59737
ltoes -23.4959
2965
root -0.468372 18.6502 -19.8646 9.2548 48.0081 1.84016
lowerback 2.66113 -0.595246 1.75076
upperback -7.04202 -0.46443 1.67127
thorax -8.90577 -0.246408 0.828763
lowerneck 17.4546 17.9508 16.5647
upperneck -14.5847 25.4544 -22.2696
head -1.94164 13.7036 -10.0581
rclavicle 1.98785e-015 -3.97569e-015
rhumerus -44.7009 -35.9903 -18.6182
rradius 68.0129
rwrist 24.1506
rhand 40.4905 29.6234
rfingers 7.12502
rthumb 62.8006 19.1634
lclavicle 1.98785e-015 -3.97569e-015
lhumerus -53.2554 24.3104 23.1016
lradius 61.1202
lwrist 3.6245
lhand 22.4832 36.7112
lfingers 7.12502
lthumb 46.841 -300.553
rfemur -6.81007 2.18698 15.2269
rtibia 23.1935
rfoot 1.29042 7.89207
rtoes 26.4042
lfemur -11.6138 -4.84789 -11.6483
ltibia 20.3407
lfoot -11.0005 -3.13384
ltoes -25.4303
2966
root -0.499294 18.7423 -19.9198 9.39905 48.0872 1.78036
lowerback 2.24124 -0.585144 1.88711
upperback -7.16312 -0.445979 1.67056
thorax -8.79196 -0.244876 0.74597
lowerneck 17.2136 17.5835 17.5783
upperneck -14.071 25.1636 -23.0731
head -1.55564 13.5839 -10.3403
rclavicle -3.81667e-014 -5.56597e-015
rhumerus -44.6271 -36.0626 -18.1793
rradius 68.3237
rwrist 23.8027
rhand 38.523 28.6717
rfingers 7.12502
rthumb 61.1599 16.1696
lclavicle -3.81667e-014 -5.56597e-015
lhumerus -52.3336 24.0422 23.1893
lradius 61.5324
lwrist 4.67964
lhand 18.2022 35.4759
lfingers 7.12502
lthumb 42.8567 -300.228
rfemur -7.15538 2.20521 15.275
rtibia 22.7571
rfoot 2.45105 6.75932
rtoes 27.0485
lfemur -11.6284 -4.0628 -12.0571
ltibia 20.5869
lfoot -11.2763 -3.08853
ltoes -30.202
2967
root -0.527207 18.8329 -19.972 9.73085 48.1045 1.84796
lowerback 1.69965 -0.620724 1.94569
upperback -7.25606 -0.501695 1.6513
thorax -8.57485 -0.274974 0.692153
lowerneck 17.303 17.7175 17.1143
upperneck -14.6482 25.2227 -22.5566
head -1.86549 13.5834 -10.202
rclavicle -6.47044e-014 -4.29375e-014
rhumerus -44.1998 -35.7966 -18.1694
rradius 68.5647
rwrist 23.1758
rhand 36.2222 27.2703
rfingers 7.12502
rthumb 59.1967 12.6735
lclavicle -6.47044e-014 -4.29375e-014
lhumerus -51.511 23.7879 23.1197
lradius 61.7486
lwrist 5.7566
lhand 14.1226 34.0408
lfingers 7.12502
lthumb 39.0251 -300.446
rfemur -7.64729 2.31369 15.2828
rtibia 22.4211
rfoot 3.32445 5.42688
rtoes 26.4214
lfemur -11.7301 -3.67248 -12.4812
ltibia 20.9137
lfoot -11.5115 -3.31942
ltoes -30.0021
